Coordinates
version=1
nRows=13
nColumns=63
inDegrees=yes

Units are S.I. units (second, meters, Newtons, ...)
If the header above contains a line with 'inDegrees', this indicates whether rotational values are in degrees (yes) or radians (no).

endheader
time	pelvis_tilt	pelvis_list	pelvis_rotation	pelvis_tx	pelvis_ty	pelvis_tz	hip_flexion_r	hip_adduction_r	hip_rotation_r	knee_angle_r	knee_angle_r_beta	ankle_angle_r	subtalar_angle_r	mtp_angle_r	hip_flexion_l	hip_adduction_l	hip_rotation_l	knee_angle_l	knee_angle_l_beta	ankle_angle_l	subtalar_angle_l	mtp_angle_l	L5_S1_Flex_Ext	L5_S1_Lat_Bending	L5_S1_axial_rotation	L4_L5_Flex_Ext	L4_L5_Lat_Bending	L4_L5_axial_rotation	L3_L4_Flex_Ext	L3_L4_Lat_Bending	L3_L4_axial_rotation	L2_L3_Flex_Ext	L2_L3_Lat_Bending	L2_L3_axial_rotation	L1_L2_Flex_Ext	L1_L2_Lat_Bending	L1_L2_axial_rotation	L1_T12_Flex_Ext	L1_T12_Lat_Bending	L1_T12_axial_rotation	Abs_r3	Abs_r2	Abs_r1	Abs_t1	Abs_t2	neck_flexion	neck_bending	neck_rotation	arm_flex_r	arm_add_r	arm_rot_r	elbow_flex_r	pro_sup_r	wrist_flex_r	wrist_dev_r	arm_flex_l	arm_add_l	arm_rot_l	elbow_flex_l	pro_sup_l	wrist_flex_l	wrist_dev_l
5.844444	-4.825446	1.004207	85.605557	-0.082977	0.818475	0.641817	-2.233372	-7.635655	-6.330665	12.057884	0.210450	33.093858	13.103948	0.000000	-4.539604	4.926437	-15.934235	7.272665	0.126932	28.487981	16.563998	0.000000	-0.517487	-0.289288	7.135709	-0.961024	-0.384754	7.581691	-0.850179	-0.703376	7.581691	-0.591435	-0.703376	6.243745	-0.480538	-0.589917	5.797763	-0.295692	-0.448108	5.351782	-3.696354	-3.272488	39.686672	0.000000	0.000000	13.450081	-15.978169	-12.913771	-19.641960	-7.279291	-9.100746	30.318926	83.768346	-5.805325	2.675352	83.657150	-16.045441	120.171339	0.095595	0.947975	-69.796424	-25.270253
5.866667	-5.381767	1.138139	86.801303	-0.083179	0.817348	0.642593	-2.263625	-8.109382	-7.055031	12.786940	0.223174	33.600746	12.266944	0.000000	-4.481719	5.301881	-14.880591	7.517885	0.131212	28.749004	16.663959	0.000000	-0.548139	-0.359376	7.314721	-1.017949	-0.477970	7.771891	-0.900538	-0.873787	7.771891	-0.626468	-0.873787	6.400381	-0.509002	-0.732840	5.943211	-0.313207	-0.556674	5.486041	-3.915303	-4.065335	40.682283	0.000000	0.000000	12.678830	-15.680803	-15.169580	-20.044815	-6.249166	-10.842420	30.129098	83.470220	-5.781484	2.550936	87.359570	-14.334962	123.484684	0.084068	0.953943	-69.840980	-24.554659
5.888889	-5.884756	1.362456	88.009399	-0.083653	0.816277	0.643341	-2.392296	-8.522462	-7.733800	13.552610	0.236538	34.084090	11.351747	0.000000	-4.523664	5.621915	-13.846937	7.772236	0.135651	29.019234	16.768177	0.000000	-0.579959	-0.410841	7.487971	-1.077043	-0.546418	7.955969	-0.952815	-0.998918	7.955969	-0.662836	-0.998918	6.551975	-0.538550	-0.837786	6.083977	-0.331389	-0.636392	5.615978	-4.142592	-4.647510	41.645849	0.000000	0.000000	11.825020	-15.162695	-17.271511	-20.438692	-5.284013	-12.541026	29.905670	83.047666	-5.707319	2.461619	90.468656	-12.325428	126.137280	0.076239	0.928401	-69.860654	-24.491550
5.911111	-6.324136	1.688731	89.215868	-0.084412	0.815363	0.644038	-2.634597	-8.871181	-8.371292	14.328412	0.250078	34.537897	10.396947	0.000000	-4.678872	5.881637	-12.830138	8.032648	0.140196	29.289257	16.864644	0.000000	-0.611307	-0.441495	7.648831	-1.135259	-0.587188	8.126883	-1.004317	-1.073450	8.126883	-0.698663	-1.073450	6.692727	-0.567660	-0.900296	6.214675	-0.349301	-0.683875	5.736624	-4.366506	-4.994277	42.540505	0.000000	0.000000	10.854164	-14.526122	-19.237225	-20.804920	-4.405499	-14.127651	29.658977	82.508479	-5.616890	2.418347	92.868223	-10.109479	128.623169	0.070040	0.905102	-69.868713	-24.474375
5.933333	-6.652415	2.133502	90.366487	-0.085431	0.814718	0.644697	-3.009248	-9.102990	-8.889541	15.069618	0.263014	34.921377	9.378798	0.000000	-4.966625	6.039620	-11.896842	8.294948	0.144774	29.571705	16.973619	0.000000	-0.641462	-0.444407	7.801364	-1.191258	-0.591061	8.288949	-1.053857	-1.080530	8.288949	-0.733126	-1.080530	6.826194	-0.595661	-0.906234	6.338608	-0.366531	-0.688386	5.851023	-4.581896	-5.027216	43.388847	0.000000	0.000000	9.794424	-13.890274	-21.058044	-21.196564	-3.673526	-15.524660	29.432527	81.602300	-5.532675	2.352181	94.466606	-7.758259	130.801382	0.065463	0.885627	-69.871809	-24.479616
5.955556	-6.860424	2.685314	91.417676	-0.086635	0.814418	0.645293	-3.504642	-9.216064	-9.273370	15.741253	0.274737	35.210066	8.340218	0.000000	-5.379060	6.094959	-11.081765	8.548510	0.149200	29.850789	17.099831	0.000000	-0.669346	-0.419233	7.945257	-1.243042	-0.557580	8.441836	-1.099668	-1.019324	8.441836	-0.764995	-1.019324	6.952100	-0.621555	-0.854900	6.455522	-0.382464	-0.649392	5.958943	-4.781070	-4.742450	44.189137	0.000000	0.000000	8.694076	-13.362486	-22.672447	-21.631744	-3.096534	-16.763269	29.238382	80.367422	-5.483630	2.212425	95.224019	-5.393565	132.475872	0.062181	0.864038	-69.875806	-24.489234
5.977778	-6.948505	3.310968	92.347649	-0.087968	0.814503	0.645801	-4.087917	-9.215587	-9.528716	16.316845	0.284783	35.390661	7.320032	0.000000	-5.883581	6.052919	-10.400848	8.785076	0.153329	30.091383	17.239130	0.000000	-0.693896	-0.368235	8.070969	-1.288634	-0.489753	8.575405	-1.140002	-0.895327	8.575405	-0.793054	-0.895327	7.062098	-0.644352	-0.750905	6.557663	-0.396492	-0.570396	6.053227	-4.956430	-4.165550	44.888310	0.000000	0.000000	7.631662	-12.981827	-23.967395	-22.103421	-2.692797	-17.827517	29.076164	78.827450	-5.496049	1.957056	95.145804	-3.178408	133.528500	0.059820	0.840482	-69.881617	-24.498798
6.000000	-6.912568	3.965450	93.091884	-0.089362	0.814945	0.646152	-4.702187	-9.109377	-9.635523	16.791474	0.293067	35.462883	6.372850	0.000000	-6.448591	5.923968	-9.870797	8.982037	0.156766	30.262653	17.353678	0.000000	-0.712508	-0.293169	8.170683	-1.323199	-0.389915	8.681350	-1.170580	-0.712811	8.681350	-0.814326	-0.712811	7.149347	-0.661635	-0.597830	6.638680	-0.407127	-0.454119	6.128012	-5.089377	-3.316387	45.442885	0.000000	0.000000	6.691984	-12.784241	-24.794567	-22.635336	-2.437123	-19.035559	29.030020	77.368080	-5.394089	1.746162	94.250288	-1.299253	133.965834	0.058431	0.814048	-69.887978	-24.500361
6.022222	-6.771367	4.610475	93.650333	-0.090724	0.815711	0.646310	-5.317251	-8.915420	-9.606735	17.142860	0.299199	35.434830	5.527826	0.000000	-7.031213	5.720641	-9.500384	9.148003	0.159663	30.332783	17.460974	0.000000	-0.724089	-0.201965	8.214027	-1.344706	-0.268614	8.727403	-1.189606	-0.491058	8.727403	-0.827561	-0.491058	7.187273	-0.672389	-0.411847	6.673897	-0.413744	-0.312844	6.160520	-5.172096	-2.284670	45.683953	0.000000	0.000000	5.944744	-12.656410	-25.015130	-23.099619	-2.400720	-19.928390	29.011499	75.803109	-5.339567	1.518999	92.590436	0.019589	133.756443	0.058262	0.789490	-69.893005	-24.494336
6.044444	-6.538098	5.201764	93.966222	-0.091963	0.816704	0.646217	-5.883355	-8.655371	-9.441759	17.367983	0.303128	35.323235	4.855270	0.000000	-7.602263	5.468167	-9.295027	9.254274	0.161518	30.299902	17.518191	0.000000	-0.726711	-0.099789	8.192342	-1.349575	-0.132719	8.704364	-1.193913	-0.242626	8.704364	-0.830558	-0.242626	7.168300	-0.674824	-0.203489	6.656278	-0.415243	-0.154573	6.144257	-5.190823	-1.128831	45.563351	0.000000	0.000000	5.453894	-12.582585	-24.547189	-23.464528	-2.578505	-20.535366	29.049262	74.307269	-5.234826	1.372741	90.227476	0.643766	132.866808	0.059523	0.764270	-69.894333	-24.475693
6.066667	-6.238868	5.701820	94.026443	-0.093003	0.817850	0.645857	-6.370025	-8.354349	-9.136108	17.450599	0.304570	35.129148	4.362873	0.000000	-8.124026	5.191690	-9.277347	9.298577	0.162291	30.174412	17.540731	0.000000	-0.719490	0.006390	8.095272	-1.336164	0.008499	8.601227	-1.182050	0.015538	8.601227	-0.822305	0.015538	7.083363	-0.668118	0.013031	6.577409	-0.411116	0.009899	6.071454	-5.139243	0.072290	45.023477	0.000000	0.000000	5.257102	-12.533598	-23.357412	-23.672867	-2.999568	-20.633785	29.113328	72.918265	-5.129272	1.320403	87.267303	0.496892	131.279522	0.062257	0.743092	-69.890895	-24.445067
6.088889	-5.876220	6.093364	93.817394	-0.093783	0.819098	0.645236	-6.769439	-8.015774	-8.693512	17.375776	0.303265	34.850292	4.068355	0.000000	-8.578955	4.893990	-9.442676	9.285755	0.162067	29.972075	17.506319	0.000000	-0.702937	0.113171	7.925165	-1.305424	0.150518	8.420487	-1.154855	0.275165	8.420487	-0.803386	0.275165	6.934519	-0.652747	0.230779	6.439196	-0.401658	0.175303	5.943873	-5.021007	1.280218	44.077388	0.000000	0.000000	5.359717	-12.511807	-21.489429	-23.703015	-3.677331	-20.107615	29.184582	71.708462	-5.025489	1.371053	83.842163	-0.425437	129.204915	0.066324	0.730051	-69.882412	-24.405288
6.111111	-5.464946	6.358892	93.318548	-0.094255	0.820378	0.644409	-7.049670	-7.660481	-8.120454	17.164940	0.299585	34.502066	3.997526	0.000000	-8.944417	4.591002	-9.830496	9.221148	0.160939	29.723548	17.426172	0.000000	-0.677387	0.216325	7.698186	-1.257975	0.287713	8.179322	-1.112878	0.525974	8.179322	-0.774185	0.525974	6.735912	-0.629021	0.441131	6.254776	-0.387059	0.335088	5.773639	-4.838504	2.447117	42.814999	0.000000	0.000000	5.765385	-12.539526	-19.056154	-23.568566	-4.590795	-19.003214	29.271919	70.992746	-4.932930	1.539483	80.113089	-2.059031	126.940796	0.071304	0.731140	-69.869510	-24.362029
